<?xml version="1.0" encoding="UTF-8"?>
<svg width="72px" height="72px" viewBox="0 0 72 72" version="1.1" xmlns="http://www.w3.org/2000/svg" xmlns:xlink="http://www.w3.org/1999/xlink">
    <title>hdpi/ic_launcher_APP</title>
    <defs>
        <linearGradient x1="50%" y1="8.58688121e-15%" x2="50%" y2="99.4236233%" id="linearGradient-1">
            <stop stop-color="#021200" offset="0%"></stop>
            <stop stop-color="#007A16" offset="100%"></stop>
        </linearGradient>
        <rect id="path-2" x="0" y="0" width="72" height="72"></rect>
        <linearGradient x1="50%" y1="0%" x2="50%" y2="100%" id="linearGradient-4">
            <stop stop-color="#021B00" offset="0%"></stop>
            <stop stop-color="#0FFF00" offset="100%"></stop>
        </linearGradient>
        <filter x="-146.8%" y="-167.4%" width="393.3%" height="434.1%" filterUnits="objectBoundingBox" id="filter-5">
            <feOffset dx="0" dy="2" in="SourceAlpha" result="shadowOffsetOuter1"></feOffset>
            <feGaussianBlur stdDeviation="19.5" in="shadowOffsetOuter1" result="shadowBlurOuter1"></feGaussianBlur>
            <feColorMatrix values="0 0 0 0 0.0258527187   0 0 0 0 0.19774683   0 0 0 0 0  0 0 0 0.5 0" type="matrix" in="shadowBlurOuter1" result="shadowMatrixOuter1"></feColorMatrix>
            <feMerge>
                <feMergeNode in="shadowMatrixOuter1"></feMergeNode>
                <feMergeNode in="SourceGraphic"></feMergeNode>
            </feMerge>
        </filter>
        <rect id="path-6" x="0" y="0" width="72" height="72"></rect>
        <filter x="-146.8%" y="-167.4%" width="393.3%" height="434.1%" filterUnits="objectBoundingBox" id="filter-8">
            <feOffset dx="0" dy="2" in="SourceAlpha" result="shadowOffsetOuter1"></feOffset>
            <feGaussianBlur stdDeviation="19.5" in="shadowOffsetOuter1" result="shadowBlurOuter1"></feGaussianBlur>
            <feColorMatrix values="0 0 0 0 0.0258527187   0 0 0 0 0.19774683   0 0 0 0 0  0 0 0 0.5 0" type="matrix" in="shadowBlurOuter1" result="shadowMatrixOuter1"></feColorMatrix>
            <feMerge>
                <feMergeNode in="shadowMatrixOuter1"></feMergeNode>
                <feMergeNode in="SourceGraphic"></feMergeNode>
            </feMerge>
        </filter>
    </defs>
    <g id="hdpi/ic_launcher_APP" stroke="none" stroke-width="1" fill="none" fill-rule="evenodd">
        <g id="Oval">
            <mask id="mask-3" fill="white">
                <use xlink:href="#path-2"></use>
            </mask>
            <use id="Mask" fill="url(#linearGradient-1)" xlink:href="#path-2"></use>
            <ellipse fill="url(#linearGradient-4)" mask="url(#mask-3)" cx="36" cy="88" rx="70" ry="45"></ellipse>
        </g>
        <g id="TDex_Logo" filter="url(#filter-5)" transform="translate(9.140625, 12.375000)" fill="#0FFF00" fill-rule="nonzero">
            <path d="M32.1003581,8.42698303 L36.7329109,8.42698303 L36.7329109,35.7691958 C36.7329109,41.1133555 32.9321927,45.8720053 27.6785002,46.5403705 C25.9895212,46.7587625 24.2732464,46.5528983 22.6820197,45.9410513 C22.63003,45.9217184 22.6519204,45.8388632 22.7066464,45.8388632 C22.7613723,45.8388632 22.895451,45.8388632 22.9802762,45.8388632 L22.9802762,45.8388632 C22.7969442,45.8388632 22.6136122,45.8388632 22.4330166,45.8388632 L22.4111262,45.8388632 C18.520328,44.2229341 15.9777735,40.3996672 15.9698041,36.1530915 L15.9698041,24.7245989 C15.9691274,24.7109425 15.9739823,24.6975763 15.9833019,24.6876471 C15.9926216,24.6777179 16.0055826,24.6721029 16.0191336,24.672124 L20.5613886,24.672124 C20.5901017,24.672124 20.6133783,24.6956178 20.6133783,24.7245989 L20.6133783,35.8990022 C20.6133783,38.8707417 22.7203279,41.5414407 25.6426943,41.9004799 C27.2780574,42.1064279 28.9223121,41.5937403 30.1576494,40.4926922 C31.3929867,39.391644 32.1004816,37.8082325 32.1003581,36.144806 L32.1003581,36.144806 L32.1003581,8.42698303 Z M52.7703547,10.3961747 C52.1054342,5.09344255 47.3907924,1.25448541 42.0987917,1.25448541 L26.345923,1.25448541 L26.345923,-0.375 L26.3076148,-0.375 L22.5698315,3.56614521 C22.553386,3.58720342 22.553386,3.61689483 22.5698315,3.63795304 L26.3076148,7.57909825 L26.345923,7.57909825 L26.345923,5.93856549 L42.4900823,5.93856549 C44.1381888,5.93913391 45.7067161,6.65394729 46.7970698,7.90135711 C47.8874235,9.14876693 48.3946277,10.8086764 48.1897915,12.459269 C47.8340727,15.4089137 45.1798635,17.5355303 42.2465518,17.5355303 L39.2366238,17.5355303 C39.2079107,17.5355303 39.1846341,17.5590241 39.1846341,17.5880052 L39.1846341,22.1588499 C39.1846341,22.187831 39.2079107,22.2113248 39.2366238,22.2113248 L42.4928186,22.2113248 C46.700122,22.2033579 50.4880314,19.6370704 52.0890164,15.7099542 C52.0901915,15.7026371 52.0901915,15.6951767 52.0890164,15.6878595 L52.0890164,15.6878595 C52.0890164,15.610528 52.0890164,15.541482 52.0890164,15.4641505 L52.0890164,15.1078732 C52.0890164,15.2128231 52.0890164,15.3122493 52.0890164,15.4227229 C52.0890164,15.4779597 52.1683691,15.5000544 52.1875232,15.4475795 C52.794046,13.8386712 52.994342,12.1027046 52.7703547,10.3961747 Z M26.345923,23.8490958 L26.3842312,23.8490958 L30.1192782,19.9079505 C30.1357236,19.8868923 30.1357236,19.8572009 30.1192782,19.8361427 L26.3842312,15.8977593 L26.345923,15.8977593 L26.345923,17.5355303 L10.2345992,17.5355303 C8.58703327,17.534863 7.01900864,16.8204223 5.92875287,15.5736528 C4.83849711,14.3268833 4.33090555,12.6677389 4.53489006,11.0175886 C4.89060882,8.06794388 7.54481807,5.93856549 10.4781297,5.93856549 L20.454673,5.93856549 C20.4682031,5.93932537 20.4814457,5.93442517 20.4912831,5.92501852 C20.5011205,5.91561188 20.5066836,5.90252988 20.5066626,5.88885238 L20.5066626,1.31524588 C20.5066626,1.28626476 20.4833861,1.26277093 20.454673,1.26277093 L10.2345992,1.26277093 C6.02729583,1.27073785 2.23938649,3.83702535 0.638401425,7.76414151 C0.637073508,7.77237283 0.637073508,7.78076675 0.638401425,7.78899807 C0.638401425,7.98785053 0.638401425,8.17841746 0.638401425,8.3689844 C0.638401425,8.26403449 0.638401425,8.16184642 0.638401425,8.05413468 C0.638401425,7.99613604 0.559048778,7.97404133 0.53989469,8.02927812 C-0.0686610182,9.63476474 -0.273605321,11.367432 -0.0566183167,13.0723974 C0.608302145,18.3723677 5.33115283,22.2113248 10.6176809,22.2113248 L26.345923,22.2113248 L26.345923,23.8490958 Z" id="Shape"></path>
        </g>
        <g id="Oval">
            <mask id="mask-7" fill="white">
                <use xlink:href="#path-6"></use>
            </mask>
            <use id="Mask" fill="url(#linearGradient-1)" xlink:href="#path-6"></use>
            <ellipse fill="url(#linearGradient-4)" mask="url(#mask-7)" cx="36" cy="88" rx="70" ry="45"></ellipse>
        </g>
        <g id="TDex_Logo" filter="url(#filter-8)" transform="translate(9.140625, 12.375000)" fill="#0FFF00" fill-rule="nonzero">
            <path d="M32.1003581,8.42698303 L36.7329109,8.42698303 L36.7329109,35.7691958 C36.7329109,41.1133555 32.9321927,45.8720053 27.6785002,46.5403705 C25.9895212,46.7587625 24.2732464,46.5528983 22.6820197,45.9410513 C22.63003,45.9217184 22.6519204,45.8388632 22.7066464,45.8388632 C22.7613723,45.8388632 22.895451,45.8388632 22.9802762,45.8388632 L22.9802762,45.8388632 C22.7969442,45.8388632 22.6136122,45.8388632 22.4330166,45.8388632 L22.4111262,45.8388632 C18.520328,44.2229341 15.9777735,40.3996672 15.9698041,36.1530915 L15.9698041,24.7245989 C15.9691274,24.7109425 15.9739823,24.6975763 15.9833019,24.6876471 C15.9926216,24.6777179 16.0055826,24.6721029 16.0191336,24.672124 L20.5613886,24.672124 C20.5901017,24.672124 20.6133783,24.6956178 20.6133783,24.7245989 L20.6133783,35.8990022 C20.6133783,38.8707417 22.7203279,41.5414407 25.6426943,41.9004799 C27.2780574,42.1064279 28.9223121,41.5937403 30.1576494,40.4926922 C31.3929867,39.391644 32.1004816,37.8082325 32.1003581,36.144806 L32.1003581,36.144806 L32.1003581,8.42698303 Z M52.7703547,10.3961747 C52.1054342,5.09344255 47.3907924,1.25448541 42.0987917,1.25448541 L26.345923,1.25448541 L26.345923,-0.375 L26.3076148,-0.375 L22.5698315,3.56614521 C22.553386,3.58720342 22.553386,3.61689483 22.5698315,3.63795304 L26.3076148,7.57909825 L26.345923,7.57909825 L26.345923,5.93856549 L42.4900823,5.93856549 C44.1381888,5.93913391 45.7067161,6.65394729 46.7970698,7.90135711 C47.8874235,9.14876693 48.3946277,10.8086764 48.1897915,12.459269 C47.8340727,15.4089137 45.1798635,17.5355303 42.2465518,17.5355303 L39.2366238,17.5355303 C39.2079107,17.5355303 39.1846341,17.5590241 39.1846341,17.5880052 L39.1846341,22.1588499 C39.1846341,22.187831 39.2079107,22.2113248 39.2366238,22.2113248 L42.4928186,22.2113248 C46.700122,22.2033579 50.4880314,19.6370704 52.0890164,15.7099542 C52.0901915,15.7026371 52.0901915,15.6951767 52.0890164,15.6878595 L52.0890164,15.6878595 C52.0890164,15.610528 52.0890164,15.541482 52.0890164,15.4641505 L52.0890164,15.1078732 C52.0890164,15.2128231 52.0890164,15.3122493 52.0890164,15.4227229 C52.0890164,15.4779597 52.1683691,15.5000544 52.1875232,15.4475795 C52.794046,13.8386712 52.994342,12.1027046 52.7703547,10.3961747 Z M26.345923,23.8490958 L26.3842312,23.8490958 L30.1192782,19.9079505 C30.1357236,19.8868923 30.1357236,19.8572009 30.1192782,19.8361427 L26.3842312,15.8977593 L26.345923,15.8977593 L26.345923,17.5355303 L10.2345992,17.5355303 C8.58703327,17.534863 7.01900864,16.8204223 5.92875287,15.5736528 C4.83849711,14.3268833 4.33090555,12.6677389 4.53489006,11.0175886 C4.89060882,8.06794388 7.54481807,5.93856549 10.4781297,5.93856549 L20.454673,5.93856549 C20.4682031,5.93932537 20.4814457,5.93442517 20.4912831,5.92501852 C20.5011205,5.91561188 20.5066836,5.90252988 20.5066626,5.88885238 L20.5066626,1.31524588 C20.5066626,1.28626476 20.4833861,1.26277093 20.454673,1.26277093 L10.2345992,1.26277093 C6.02729583,1.27073785 2.23938649,3.83702535 0.638401425,7.76414151 C0.637073508,7.77237283 0.637073508,7.78076675 0.638401425,7.78899807 C0.638401425,7.98785053 0.638401425,8.17841746 0.638401425,8.3689844 C0.638401425,8.26403449 0.638401425,8.16184642 0.638401425,8.05413468 C0.638401425,7.99613604 0.559048778,7.97404133 0.53989469,8.02927812 C-0.0686610182,9.63476474 -0.273605321,11.367432 -0.0566183167,13.0723974 C0.608302145,18.3723677 5.33115283,22.2113248 10.6176809,22.2113248 L26.345923,22.2113248 L26.345923,23.8490958 Z" id="Shape"></path>
        </g>
    </g>
</svg>